# AST/ASF file generated using VICON BodyLanguage
# -----------------------------------------------
:version 1.10
:name VICON
:units
  mass 1.0
  length 0.45
  angle deg
:documentation
   .ast/.asf automatically generated from VICON data using
   VICON BodyBuilder and BodyLanguage model FoxedUp or BRILLIANT.MOD
:root
   order TX TY TZ RX RY RZ
   axis XYZ
   position 0 0 0  
   orientation 0 0 0 
:bonedata
  begin
     id 1 
     name lhipjoint
     direction 0.78388 -0.462562 0.414208 
     length 3.01181 
     axis 0 0 0  XYZ
  end
  begin
     id 2 
     name lfemur
     direction 0.34202 -0.939693 0  
     length 6.04673  
     axis 0 0 20  XYZ
    dof rx ry rz
    limits (-160.0 20.0)
           (-70.0 70.0)
           (-60.0 70.0)
  end
  begin
     id 3 
     name ltibia
     direction 0.34202 -0.939693 0   
     length 7.211   
     axis 0 0 20   XYZ
    dof rx
    limits (-10.0 170.0)
  end
  begin
     id 4 
     name lfoot
     direction 0.121887 -0.334882 0.934344   
     length 2.13567   
     axis -90 7.62852e-016 20   XYZ
    dof rx rz
    limits (-45.0 90.0)
           (-70.0 20.0)
  end
  begin
     id 5 
     name ltoes
     direction 1.53555e-011 -4.2179e-011 1   
     length 1.05957   
     axis -90 7.62852e-016 20   XYZ
    dof rx
    limits (-90.0 20.0)
  end
  begin
     id 6 
     name rhipjoint
     direction -0.769387 -0.475875 0.426129   
     length 2.92756  
     axis 0 0 0  XYZ 
  end
  begin
     id 7 
     name rfemur
     direction -0.34202 -0.939693 0   
     length 6.35468   
     axis 0 0 -20   XYZ
    dof rx ry rz
    limits (-160.0 20.0)
           (-70.0 70.0)
           (-70.0 60.0)
  end
  begin
     id 8 
     name rtibia
     direction -0.34202 -0.939693 0   
     length 7.37886   
     axis 0 0 -20   XYZ
    dof rx
    limits (-10.0 170.0)
 end
 begin
     id 9 
     name rfoot
     direction -0.101763 -0.279592 0.954711   
     length 2.21478  
     axis -90 -7.62852e-016 -20   XYZ
    dof rx rz
    limits (-45.0 90.0)
           (-20.0 70.0)
  end
  begin
     id 10 
     name rtoes
     direction -1.53494e-011 -4.21851e-011 1   
     length 1.10506   
     axis -90 -7.62852e-016 -20   XYZ
    dof rx
    limits (-90.0 20.0)
  end
  begin
     id 11 
     name lowerback
     direction 0.00747405 0.999267 0.0375481   
     length 2.13259   
     axis 0 0 0   XYZ
    dof rx ry rz
    limits (-20.0 45.0)
           (-30.0 30.0)
           (-30.0 30.0)
  end
  begin
     id 12 
     name upperback
     direction 0.00661626 0.996177 0.0871029   
     length 2.10528   
     axis 0 0 0   XYZ
    dof rx ry rz
    limits (-20.0 45.0)
           (-30.0 30.0)
           (-30.0 30.0)
  end
  begin
     id 13 
     name thorax
     direction 0.00320659 0.997679 0.0680167   
     length 2.11338   
     axis 0 0 0   XYZ
    dof rx ry rz
    limits (-20.0 45.0)
           (-30.0 30.0)
           (-30.0 30.0)
  end
  begin
     id 14 
     name lowerneck
     direction 0.0374841 0.973033 0.227602   
     length 1.42765   
     axis 0 0 0   XYZ
    dof rx ry rz
    limits (-20.0 45.0)
           (-30.0 30.0)
           (-30.0 30.0)
  end
  begin
     id 15 
     name upperneck
     direction 0.00481585 0.989155 -0.146795   
     length 1.47593   
     axis 0 0 0   XYZ
    dof rx ry rz
    limits (-20.0 45.0)
           (-30.0 30.0)
           (-30.0 30.0)
  end
  begin
     id 16
     name head
     direction -0.00292522 0.997206 -0.0746423  
     length 1.48116  
     axis 0 0 0   XYZ
    dof rx ry rz
    limits (-20.0 45.0)
           (-30.0 30.0)
           (-30.0 30.0)
  end
  begin
     id 17 
     name lclavicle
     direction 0.951444 0.305606 0.0368784  
     length 3.01855  
     axis 0 0 0   XYZ
    dof ry rz
    limits (-20.0 10.0)
           (0.0 20.0)
  end
  begin
     id 18 
     name lhumerus
     direction 1 -4.48977e-011 2.61664e-027   
     length 5.52731   
     axis 180 -30 -90   XYZ
    dof rx ry rz
    limits (-60.0 90.0)
           (-90.0 90.0)
           (-90.0 90.0)
  end
  begin
     id 19
     name lradius
     direction 1 -4.48944e-011 8.22157e-027   
     length 3.11059   
     axis 180 -30 -90   XYZ
    dof rx
    limits (-10.0 170.0)
  end
  begin
     id 20
     name lwrist
     direction 1 -4.48976e-011 1.5779e-026   
     length 1.5553   
     axis -1.15221e-014 90 90   XYZ
    dof ry
    limits (-180.0 0.0)
 end
  begin
     id 21 
     name lhand
     direction 1 -4.49025e-011 3.1558e-026   
     length 0.419626   
     axis -2.01367e-014 90 90   XYZ
    dof rx rz
    limits (-90.0 90.0)
           (-45.0 45.0)
  end
  begin
     id 22 
     name lfingers
     direction 1 -4.4904e-011 6.31161e-026   
     length 0.338313   
     axis -4.02734e-014 90 90   XYZ
    dof rx
    limits (0.0 90.0)
  end
  begin
     id 23
     name lthumb
     direction 0.707107 -6.35004e-011 0.707107   
     length 0.485752   
     axis -90 45 2.85299e-015   XYZ
    dof rx rz
    limits (-45.0 45.0)
           (-45.0 45.0)
  end
  begin
     id 24 
     name rclavicle
     direction -0.968876 0.223791 0.105816   
     length 3.04177  
     axis 0 0 0   XYZ 
    dof ry rz
    limits (-10.0 20.0)
           (-20.0 0.0)
  end
  begin
     id 25 
     name rhumerus
     direction -1 -4.48962e-011 -1.01384e-027  
     length 5.25396   
     axis 180 30 90   XYZ
    dof rx ry rz
    limits (-90.0 60.0)
           (-90.0 90.0)
           (-90.0 90.0)
  end
  begin
     id 26 
     name rradius
     direction -1 -4.48955e-011 8.88542e-027   
     length 3.10567   
     axis 180 30 90   XYZ
    dof rx
    limits (-10.0 170.0)
  end
  begin
     id 27 
     name rwrist
     direction -1 -4.48994e-011 1.5779e-026   
     length 1.55283   
     axis -1.15221e-014 -90 -90   XYZ
    dof ry
    limits (-180.0 0.0)
  end
  begin
     id 28
     name rhand
     direction -1 -4.48891e-011 3.1558e-026   
     length 0.498676   
     axis -2.01367e-014 -90 -90   XYZ
    dof rx rz
    limits (-90.0 90.0)
           (-45.0 45.0)
  end
  begin
     id 29
     name rfingers
     direction -1 -4.48972e-011 6.31161e-026   
     length 0.402045   
     axis -4.02734e-014 -90 -90   XYZ
    dof rx
    limits (0.0 90.0)
  end
  begin
     id 30
     name rthumb
     direction -0.707107 -6.34849e-011 0.707107   
     length 0.577259   
     axis -90 -45 -2.85299e-015   XYZ
    dof rx rz
    limits (-45.0 45.0)
           (-45.0 45.0)
  end
:hierarchy
  begin
    root lhipjoint rhipjoint lowerback
    lhipjoint lfemur
    lfemur ltibia
    ltibia lfoot
    lfoot ltoes
    rhipjoint rfemur
    rfemur rtibia
    rtibia rfoot
    rfoot rtoes
    lowerback upperback
    upperback thorax
    thorax lowerneck lclavicle rclavicle
    lowerneck upperneck
    upperneck head
    lclavicle lhumerus
    lhumerus lradius
    lradius lwrist
    lwrist lhand lthumb
    lhand lfingers
    rclavicle rhumerus
    rhumerus rradius
    rradius rwrist
    rwrist rhand rthumb
    rhand rfingers
  end

#!OML:ASF H:\Pregnant\Project 1\Capture day 1\Session 1\femalepreg.ASF
:FULLY-SPECIFIED
:DEGREES
68
root 7.13483 15.2049 24.9132 -155.524 2.60742 -172.167
lowerback -9.33407 0.636422 9.63335
upperback -3.60273 0.441589 2.59893
thorax 1.47229 0.390622 -2.64368
lowerneck -13.9215 5.98114 5.71828
upperneck 27.522 10.0687 -3.88489
head 11.793 5.2225 -0.832783
rclavicle -1.07344e-014 9.14409e-015
rhumerus -29.6992 9.84737 -84.1785
rradius 41.7175
rwrist -14.1593
rhand -15.3476 -19.8715
rfingers 7.12502
rthumb 10.8295 -49.5723
lclavicle -1.07344e-014 9.14409e-015
lhumerus -33.3846 -13.3451 84.6065
lradius 41.5073
lwrist 30.4853
lhand -21.9839 -8.56322
lfingers 7.12502
lthumb 4.4243 21.3706
rfemur -23.9345 7.7047 30.3195
rtibia 27.373
rfoot -18.2569 -16.2483
rtoes -19.5641
lfemur -61.1503 0.34181 -5.21287
ltibia 32.0383
lfoot 1.07081 15.3854
ltoes -22.394
69
root 7.1039 15.1853 24.834 -155.438 2.72026 -172.09
lowerback -9.38082 0.641175 9.39474
upperback -3.57767 0.449174 2.51251
thorax 1.52806 0.392307 -2.60044
lowerneck -13.9394 5.91397 5.66116
upperneck 27.5616 9.96926 -3.80509
head 11.7979 5.18291 -0.808217
rclavicle 1.17531e-014 -4.96962e-015
rhumerus -29.8714 10.4479 -84.358
rradius 41.994
rwrist -14.3123
rhand -15.0067 -19.738
rfingers 7.12502
rthumb 11.1583 -49.4213
lclavicle 1.17531e-014 -4.96962e-015
lhumerus -33.0092 -13.434 84.4708
lradius 41.6064
lwrist 30.6155
lhand -22.4579 -8.70554
lfingers 7.12502
lthumb 3.96662 21.2373
rfemur -23.8322 7.77651 30.2275
rtibia 27.6028
rfoot -18.3994 -16.3019
rtoes -20.1937
lfemur -61.247 0.818491 -5.60573
ltibia 32.2976
lfoot 1.65651 14.7712
ltoes -23.3303
70
root 7.07215 15.1659 24.7526 -155.371 2.83955 -172.015
lowerback -9.42285 0.640434 9.1385
upperback -3.55128 0.451736 2.42754
thorax 1.58196 0.391354 -2.54633
lowerneck -13.9282 5.85502 5.62068
upperneck 27.5857 9.8846 -3.74564
head 11.7941 5.15013 -0.792802
rclavicle -1.1455e-014 2.77305e-014
rhumerus -30.0579 11.039 -84.5185
rradius 42.2412
rwrist -14.4266
rhand -14.6103 -19.6344
rfingers 7.12502
rthumb 11.5406 -49.2967
lclavicle -1.1455e-014 2.77305e-014
lhumerus -32.6468 -13.5104 84.3507
lradius 41.6978
lwrist 30.8191
lhand -22.9196 -8.84088
lfingers 7.12502
lthumb 3.52077 21.1098
rfemur -23.6891 7.86283 30.1222
rtibia 27.814
rfoot -18.5255 -16.3576
rtoes -20.8902
lfemur -61.3273 1.33566 -6.1002
ltibia 32.6623
lfoot 2.24611 14.0137
ltoes -23.8542
71
root 7.03959 15.1482 24.6689 -155.324 2.96891 -171.943
lowerback -9.45706 0.636452 8.86653
upperback -3.51987 0.451606 2.34031
thorax 1.63647 0.388781 -2.48603
lowerneck -13.8997 5.80443 5.59129
upperneck 27.599 9.81207 -3.69501
head 11.7846 5.12328 -0.781344
rclavicle 2.2736e-015 -4.79568e-014
rhumerus -30.2528 11.613 -84.6642
rradius 42.4574
rwrist -14.4897
rhand -14.1998 -19.5297
rfingers 7.12502
rthumb 11.9364 -49.1694
lclavicle 2.2736e-015 -4.79568e-014
lhumerus -32.2908 -13.5822 84.2433
lradius 41.7814
lwrist 31.0978
lhand -23.3757 -8.95108
lfingers 7.12502
lthumb 3.08029 21.0064
rfemur -23.497 7.97222 29.9999
rtibia 27.9903
rfoot -18.6301 -16.4031
rtoes -21.6122
lfemur -61.4054 1.88577 -6.68327
ltibia 33.129
lfoot 2.7753 13.1704
ltoes -23.9572
72
root 7.00647 15.1332 24.5846 -155.272 3.09564 -171.886
lowerback -9.49724 0.623868 8.56662
upperback -3.49078 0.442618 2.25128
thorax 1.69083 0.38174 -2.41283
lowerneck -13.8521 5.76274 5.55971
upperneck 27.5961 9.75113 -3.64157
head 11.7653 5.10194 -0.767742
rclavicle 1.53748e-015 9.67833e-015
rhumerus -30.4481 12.1645 -84.7929
rradius 42.641
rwrist -14.4994
rhand -13.7875 -19.4192
rfingers 7.12502
rthumb 12.334 -49.0354
lclavicle 1.53748e-015 9.67833e-015
lhumerus -31.9318 -13.6399 84.1491
lradius 41.8515
lwrist 31.4342
lhand -23.8404 -9.04091
lfingers 7.12502
lthumb 2.63151 20.9226
rfemur -23.2909 8.10574 29.8492
rtibia 28.1309
rfoot -18.702 -16.4379
rtoes -22.3695
lfemur -61.5308 2.44539 -7.33548
ltibia 33.6802
lfoot 3.19956 12.2966
ltoes -23.6435
73
root 6.97274 15.1215 24.4998 -155.215 3.21901 -171.854
lowerback -9.54281 0.600816 8.23011
upperback -3.46276 0.422745 2.15616
thorax 1.74597 0.36905 -2.32662
lowerneck -13.7831 5.72947 5.53136
upperneck 27.5731 9.69961 -3.58755
head 11.7346 5.08534 -0.754213
rclavicle 1.62134e-014 1.76421e-014
rhumerus -30.6356 12.6826 -84.9076
rradius 42.7862
rwrist -14.4519
rhand -13.3953 -19.295
rfingers 7.12502
rthumb 12.7121 -48.8881
lclavicle 1.62134e-014 1.76421e-014
lhumerus -31.5619 -13.6938 84.0664
lradius 41.8976
lwrist 31.8334
lhand -24.3067 -9.12442
lfingers 7.12502
lthumb 2.18112 20.8442
rfemur -23.0834 8.26328 29.6585
rtibia 28.2549
rfoot -18.7466 -16.4596
rtoes -23.1434
lfemur -61.7035 2.98193 -8.02974
ltibia 34.2919
lfoot 3.44438 11.4583
ltoes -22.9732
74
root 6.93848 15.1131 24.4148 -155.161 3.34164 -171.857
lowerback -9.58165 0.56476 7.84199
upperback -3.43209 0.390343 2.05343
thorax 1.79918 0.349538 -2.22086
lowerneck -13.7167 5.69902 5.49575
upperneck 27.5486 9.64941 -3.52181
head 11.703 5.0696 -0.734997
rclavicle -2.61153e-014 2.78299e-014
rhumerus -30.8084 13.1582 -85.0076
rradius 42.8911
rwrist -14.3549
rhand -13.0107 -19.1749
rfingers 7.12502
rthumb 13.0829 -48.7445
lclavicle -2.61153e-014 2.78299e-014
lhumerus -31.1788 -13.739 83.9936
lradius 41.917
lwrist 32.2844
lhand -24.7709 -9.21955
lfingers 7.12502
lthumb 1.73281 20.7532
rfemur -22.8903 8.44448 29.4185
rtibia 28.4076
rfoot -18.7791 -16.4747
rtoes -23.9215
lfemur -61.896 3.46072 -8.73248
ltibia 34.9318
lfoot 3.52087 10.7067
ltoes -22.043
75
root 6.90394 15.1072 24.33 -155.114 3.46059 -171.907
lowerback -9.60902 0.513472 7.38749
upperback -3.39503 0.343568 1.94159
thorax 1.8518 0.322162 -2.089
lowerneck -13.6571 5.67111 5.44962
upperneck 27.5169 9.59749 -3.44033
head 11.6684 5.05299 -0.708595
rclavicle 7.70291e-015 3.57812e-015
rhumerus -30.9558 13.5793 -85.0904
rradius 42.9514
rwrist -14.217
rhand -12.6428 -19.0613
rfingers 7.12502
rthumb 13.4375 -48.6078
lclavicle 7.70291e-015 3.57812e-015
lhumerus -30.7684 -13.7865 83.9292
lradius 41.8982
lwrist 32.7826
lhand -25.2301 -9.30109
lfingers 7.12502
lthumb 1.28935 20.6748
rfemur -22.7384 8.63545 29.1255
rtibia 28.6388
rfoot -18.8134 -16.4895
rtoes -24.6982
lfemur -62.0895 3.85538 -9.41962
ltibia 35.5735
lfoot 3.45287 10.0691
ltoes -20.9578
76
root 6.86971 15.1023 24.2463 -155.068 3.5657 -172.014
lowerback -9.61837 0.441345 6.84899
upperback -3.3593 0.278318 1.82097
thorax 1.89209 0.284662 -1.92131
lowerneck -13.6011 5.64151 5.39819
upperneck 27.4811 9.53927 -3.34823
head 11.6319 5.03375 -0.678444
rclavicle -6.5102e-015 -1.21259e-014
rhumerus -31.0869 13.9391 -85.1541
rradius 42.9718
rwrist -14.0616
rhand -12.2794 -18.9653
rfingers 7.12502
rthumb 13.7877 -48.4884
lclavicle -6.5102e-015 -1.21259e-014
lhumerus -30.3414 -13.8317 83.8731
lradius 41.8446
lwrist 33.3162
lhand -25.6577 -9.38256
lfingers 7.12502
lthumb 0.876348 20.5954
rfemur -22.6686 8.814 28.778
rtibia 29.0033
rfoot -18.8555 -16.5106
rtoes -25.4644
lfemur -62.2767 4.14626 -10.0805
ltibia 36.1946
lfoot 3.28479 9.55526
ltoes -19.8919
77
root 6.83623 15.0976 24.1637 -155.035 3.6626 -172.174
lowerback -9.58991 0.352349 6.2278
upperback -3.3214 0.200559 1.69159
thorax 1.9137 0.239769 -1.71772
lowerneck -13.5607 5.60862 5.33823
upperneck 27.446 9.47174 -3.24242
head 11.5971 5.0102 -0.642819
rclavicle 1.30204e-014 -3.06128e-014
rhumerus -31.2109 14.2288 -85.1974
rradius 42.9615
rwrist -13.8969
rhand -11.9341 -18.894
rfingers 7.12502
rthumb 14.1205 -48.3942
lclavicle 1.30204e-014 -3.06128e-014
lhumerus -29.8892 -13.8903 83.8236
lradius 41.7468
lwrist 33.882
lhand -26.0356 -9.47879
lfingers 7.12502
lthumb 0.51133 20.5003
rfemur -22.6878 8.95394 28.3906
rtibia 29.5381
rfoot -18.9116 -16.5246
rtoes -26.2185
lfemur -62.4214 4.3402 -10.7073
ltibia 36.7816
lfoot 3.04939 9.14058
ltoes -18.8919
